# xmcd
#
# Track frame offsets:
#       150
#       15585
#       33097
#       52230
#       72145
#       93350
#       107817
#       128500
#       143617
#       164442
#       183592
#
# Disc length: 2710 seconds
#
# Revision: 1
# Processed by: cddbd v1.4PL0 Copyright (c) Steve Scherf et al.
# Submitted via: MusiCat 1.0
#
DISCID=8d0a940b
DTITLE=Wild Child Butler - These Mean Old Blues
DYEAR=1900
DGENRE=
TTITLE0=These Mean Old Blues
TTITLE1=Give Me An Answer
TTITLE2=Anyone Can Say They Love You
TTITLE3=Crack House Woman
TTITLE4=Walking the Little Girl Home
TTITLE5=The Devil Made Me Do It
TTITLE6=It's A Pity
TTITLE7=No One Woman's Man
TTITLE8=It's A Sin To Be A thief
TTITLE9=My Woman's Been Misled
TTITLE10=(Baby) Do Your Thing
EXTD=1992\nBullseye Blues/Rounder\n\nBLUES
EXTT0=
EXTT1=
EXTT2=
EXTT3=
EXTT4=
EXTT5=
EXTT6=
EXTT7=
EXTT8=
EXTT9=
EXTT10=
PLAYORDER=
